<?xml version="1.0" encoding="utf-8"?>
<!-- Generator: Adobe Illustrator 19.1.0, SVG Export Plug-In . SVG Version: 6.00 Build 0)  -->
<svg version="1.1" id="Layer_1" xmlns="http://www.w3.org/2000/svg" xmlns:xlink="http://www.w3.org/1999/xlink" x="0px" y="0px"
	 viewBox="0 0 530.7 268.5" style="enable-background:new 0 0 530.7 268.5;" xml:space="preserve">
<style type="text/css">
	.st0{fill:#FFFFFF;}
</style>
<g>
	<g>
		<polygon class="st0" points="101.4,73.2 101.5,73.2 101.5,73.2 		"/>
		<path class="st0" d="M441.7,55c-1.2-2.1-3.5-2.2-4.5-2.3l-143,0c-4,0-7.3,1.2-9.7,3.7c-1.7,1.7-2.9,4-3.5,6.7
			c0,0.1-0.2,0.6-1.4,0.6h-28.3c-1.2,0-1.4-0.6-1.4-0.6c-0.6-2.7-1.8-5-3.6-6.7c-2.4-2.4-5.7-3.7-9.7-3.7h-143
			c-0.9,0-3.2,0.2-4.4,2.3c-0.6,1-1,2.7,0.2,5.1c0,0,2.6,4.4,2.6,4.4c1.1,1.7,2.3,2.4,4.9,2.6c0,0,1.2,0.1,2.1,1.6l2.7,4.7
			c0.6,1.1,1.9,3.6,6.4,4.2c0.1,0,1.4,0.2,2.1,1.5c0,0,3.3,5.8,3.3,5.8c1,1.9,2.3,2.6,4.7,3.3c0,0,59.8,17.6,59.8,17.6
			c2,0.6,2.9,2.9,2.9,2.9c1.4,3.7,3.3,6.7,12.6,9.5c0,0,48.9,13.4,48.9,13.4c0.6,0.2,6.2,1.9,10.4-2.2c0,0,11.5-11,11.5-11
			c0,0,0.5-0.5,1.1-0.5c0.6,0,1.1,0.5,1.1,0.5c0,0,11.5,10.9,11.5,10.9c4.2,4.1,9.8,2.4,10.5,2.2c0,0,48.9-13.3,48.9-13.3
			c9.3-2.8,11.3-5.9,12.6-9.5c0.1-0.2,0.9-2.3,2.9-2.9c0,0,9-2.7,59.8-17.6c2.5-0.8,3.8-1.5,4.8-3.3l3.3-5.8c0.7-1.4,2-1.6,2.1-1.6
			c4.6-0.6,5.9-3.1,6.5-4.2c0,0,2.7-4.7,2.7-4.7c0.8-1.5,2-1.6,2.1-1.6c2.6-0.2,3.8-0.8,4.8-2.6c0,0,2.6-4.4,2.6-4.4
			c0.6-1,0.8-2,0.8-2.9C442.2,56.4,442,55.7,441.7,55z M283.5,63.7c0.5-2.2,1.5-4,2.8-5.4c1.9-1.9,4.5-2.9,7.9-2.9c0,0,32,0,65.7,0
			c-2.3,1.7-3.4,3.8-3.5,4c-0.8,1.4-1.7,3.1-2.8,5h-70.3C283.4,64.1,283.5,63.7,283.5,63.7z M194.5,86.4
			C194.5,86.3,194.5,86.3,194.5,86.4l0-19.9h141.7l0,19.9c0,0,0,0,0,0L194.5,86.4z M192.4,69.2l-11.6,0.8c-0.8-1.2-1.6-2.4-2.3-3.5
			h13.9V69.2z M192.4,71.3v2.8l-7.8,1c-0.8-1.1-1.6-2.2-2.4-3.2L192.4,71.3z M192.4,76.2v3.3l-3.6,0.7c-0.9-1.1-1.8-2.1-2.7-3.2
			L192.4,76.2z M192.4,81.6v2.6c-0.7-0.7-1.4-1.5-2-2.2C191.2,81.9,191.9,81.7,192.4,81.6z M218.6,88.4h12.8l-17.9,12.8
			c-3.1-1.9-6.1-3.9-9.1-6.2C211.2,91.9,217.4,89,218.6,88.4z M202.6,93.6c-0.2-0.1-4.2-3.6-6-5.2h17L202.6,93.6z M235,88.4h6.9
			l-17.6,18.4c-3-1.3-5.9-2.8-8.7-4.4C223.9,96.3,232.7,90,235,88.4z M244.7,88.4h5.8l-13.6,23c-3.7-1-7.2-2.3-10.7-3.7
			C233.6,99.9,242.6,90.7,244.7,88.4z M253,88.4h4.9l-7.2,25.8c-4-0.5-7.9-1.3-11.7-2.3C244.2,103.2,251.2,91.4,253,88.4z
			 M277.7,88.4l13.9,23.5c-3.8,1-7.7,1.7-11.7,2.3l-7.2-25.8H277.7z M280.1,88.4h5.8l18.5,19.3c-3.5,1.5-7.1,2.7-10.7,3.7
			L280.1,88.4z M288.9,88.4h6.9l19.5,14c-2.8,1.6-5.8,3.1-8.7,4.4C300.1,100.1,292.3,92,288.9,88.4z M299.3,88.4h12.8l14.1,6.6
			c-2.9,2.3-6,4.3-9.1,6.2C310.4,96.3,303.2,91.2,299.3,88.4z M317,88.4H334c-1.7,1.7-5.8,5.1-6,5.2C323.9,91.7,319.9,89.8,317,88.4
			z M338.3,81.6l2.1,0.4c-0.7,0.7-1.4,1.5-2.1,2.2V81.6z M338.3,79.5v-3.3l6.3,0.8c-0.8,1-1.7,2.1-2.7,3.2
			C340.3,79.9,339,79.6,338.3,79.5z M338.3,74.1v-2.8l10.2,0.7c-0.8,1-1.6,2.1-2.4,3.2L338.3,74.1z M338.3,69.2v-2.7h14
			c-0.7,1.1-1.5,2.3-2.3,3.5L338.3,69.2z M236.5,55.4c3.3,0,6,1,7.9,2.9c1.4,1.4,2.3,3.2,2.8,5.4c0,0,0.1,0.4,0.2,0.7h-70.3
			c-1.1-1.8-2.8-5-2.8-5c-0.1-0.1-1.3-2.3-3.5-4C204.5,55.4,236.5,55.4,236.5,55.4z M97,64.4c-1.8-0.1-2.2-0.3-2.8-1.3
			c0,0-2.4-4-2.6-4.3c-0.4-0.7-0.5-1.3-0.5-1.6c0-1,0.7-1.7,2.4-1.7l71.3,0c4.8,0,7.7,5,7.7,5c0.6,1.2,1.4,2.5,2.2,4H97z
			 M106.6,74.5c-1.8-0.6-2.4-1.7-2.8-2.4c-1.1-1.9-2.6-4.7-3.3-5.6H176c0.7,1.2,1.5,2.4,2.4,3.7l-66.2,4.4
			C111.2,74.6,108.1,74.8,106.6,74.5z M118.9,84c-2.4,0.3-3.2-0.5-3.3-0.7l-3.2-5.6c-0.2-0.4-0.5-0.8-0.7-1.1
			c0.4,0,68.2-4.5,68.2-4.5c0.8,1.1,1.6,2.2,2.5,3.4L118.9,84z M134.2,90.1c-6.6-1.9-11.9-3.5-14.2-4.2l63.7-8.5
			c0.9,1.1,1.8,2.2,2.7,3.3l-43.6,9C141.3,90,136.6,90.7,134.2,90.1z M155.8,96.4c-4.9-1.4-10-2.9-14.8-4.4c1.3-0.2,2.2-0.4,2.3-0.4
			c0,0,31.6-6.5,44.7-9.2c1.3,1.5,2.7,2.9,4.1,4.4l-29.2,9C162.9,95.9,158.9,97.3,155.8,96.4z M178.6,103.1
			c-0.6-0.2-7.6-2.2-16.5-4.8c0.9-0.2,1.4-0.4,1.5-0.4c0,0,24.5-7.6,30.2-9.3c2.1,2,4.3,4.1,6.7,6l-15.8,7.4
			C183.7,102.5,180.7,103.7,178.6,103.1z M191.3,114.6c-6.2-2.3-7.1-4.7-8-6.9c-0.1-0.2-0.5-1.4-1.5-2.6c2.1-0.4,3.8-1.3,3.9-1.3
			c0,0,8.4-3.9,16.7-7.8c3,2.4,6.1,4.5,9.3,6.5l-14.8,10.6C196.9,113.1,193.8,115.4,191.3,114.6z M209,119.6l-13.1-3.6
			c1.3-0.6,2.2-1.2,2.3-1.3c0,0,7.3-5.2,15.5-11.1c3,1.7,6,3.3,9.1,4.7l-8.6,9C213.3,118.1,210.9,120.1,209,119.6z M227.1,124.6
			l-14.1-3.8c1.5-0.8,2.5-1.9,2.5-2c0,0,4-4.2,9.1-9.5c3.6,1.5,7.4,2.9,11.2,4l-4.7,7.9C230.7,122.1,228.8,124.8,227.1,124.6z
			 M247.8,124.8c0,0-0.6,2.5-2.3,3.6c-0.8,0.5-1.7,0.6-2.8,0.3l-12.3-3.4c1.5-1.2,2.5-3,2.7-3.3c0,0,2.1-3.5,4.9-8.3
			c4,1.1,8.1,1.9,12.2,2.4L247.8,124.8z M250.9,127.4c-0.9,0.9-2,1.4-3,1.7c1.4-1.5,1.8-3.5,1.9-3.8l2.4-8.8
			c3.1,0.4,6.2,0.6,9.3,0.7C259,119.6,250.9,127.4,250.9,127.4z M252.8,114.5l7.2-26.1h4.3v26.8
			C260.4,115.2,256.6,114.9,252.8,114.5z M266.4,115.2V88.4h4.3l7.2,26.1C274.1,114.9,270.3,115.2,266.4,115.2z M278,125.7
			c0,0-6.6-6.3-8.9-8.5c3.2-0.1,6.3-0.3,9.3-0.7l2.4,8.8c0.1,0.3,0.6,2.2,1.9,3.8C280.9,128.5,280.4,128,278,125.7z M288.1,128.8
			c-1.1,0.2-2,0.1-2.8-0.3c-1.7-1-2.3-3.5-2.3-3.6l-2.4-8.6c4.2-0.6,8.2-1.4,12.2-2.4l4.9,8.4c0.2,0.3,1.2,2,2.7,3.3L288.1,128.8z
			 M303.6,124.6c-1.6,0.3-3.5-2.4-4.1-3.4l-4.7-7.9c3.8-1.1,7.5-2.4,11.2-4l9.1,9.5c0.1,0.1,1.1,1.1,2.5,2L303.6,124.6z M324,119
			l-2.3,0.6c-2,0.5-4.4-1.5-5.1-2.3c0,0-3.8-3.9-8.6-9c3.1-1.4,6.1-3,9.1-4.7l15.5,11.1c0.1,0,0.9,0.7,2.2,1.3
			C331.4,117,324,119,324,119z M347.4,107.7c-0.9,2.3-1.8,4.6-8,6.9c-2.6,0.8-5.6-1.5-5.6-1.5c0,0-6.9-4.9-14.8-10.6
			c3.2-2,6.3-4.1,9.3-6.5l16.7,7.8c0.1,0,1.8,0.9,3.9,1.3C348,106.3,347.5,107.5,347.4,107.7z M352.1,103.1
			c-2.1,0.6-5.1-0.6-6.1-1.1c0,0-7.8-3.7-15.8-7.4c2.4-2,4.7-4,6.7-6l30.3,9.3c0.1,0,0.6,0.2,1.4,0.4L352.1,103.1z M374.9,96.4
			c-3.1,0.8-7.1-0.5-7.1-0.5l0,0c0,0,0,0,0,0l-29.2-9c1.4-1.5,2.8-2.9,4.1-4.4l44.7,9.2c0.1,0,1,0.2,2.3,0.4L374.9,96.4z
			 M396.5,90.1c-2.4,0.6-7.1-0.1-8.7-0.4c0,0-29.8-6.1-43.6-9c1-1.1,1.9-2.2,2.7-3.3l63.7,8.5L396.5,90.1z M418.3,77.8
			c0,0-2.6,4.6-3.1,5.5c-0.1,0.2-0.9,1-3.3,0.7l-63.4-8.5c0.9-1.1,1.7-2.3,2.5-3.4l67.4,4.5c0.1,0,0.4,0,0.8,0.1
			C418.8,77,418.5,77.4,418.3,77.8z M429.6,67.3l-2.7,4.8c-0.4,0.7-0.9,1.8-2.8,2.4c-1.5,0.4-4.5,0.1-5.6,0l-66.2-4.4
			c0.9-1.3,1.6-2.5,2.4-3.7h75.5C429.9,66.7,429.7,67,429.6,67.3z M439.1,58.8c0,0.1-2.6,4.3-2.6,4.3c-0.5,0.8-0.8,1.1-2.8,1.3
			c0,0-77.8,0-77.8,0c0.9-1.5,1.6-2.8,2.2-4c0,0,2.8-5,7.7-5l71.3,0c0.7,0,1.7,0.1,2.2,1c0.1,0.1,0.2,0.4,0.2,0.8
			C439.6,57.6,439.5,58.1,439.1,58.8z"/>
	</g>
	<g>
		<path class="st0" d="M203.9,69.6h-0.6l-6.1,13.6h1.6l0-0.1c0.5-1.6,1.1-3.2,1.7-4.7c0,0,0.1-0.2,0.1-0.3c0.2,0,4.5,0,4.7,0
			c0.6,1.4,1.3,3.1,2,5.1l0,0.1h2.3L203.9,69.6z M201.2,77c0.1-0.3,1.7-4,1.9-4.5c0.2,0.4,1.8,4.2,1.9,4.5
			C204.8,77,201.6,77,201.2,77z"/>
		<path class="st0" d="M210.4,82.2L210.4,82.2c0.8,0.8,2.4,1.2,3.2,1.2c2.8,0,4.8-1.8,4.8-4.5c0-2.2-1.6-2.8-3.2-3.5
			c-1.4-0.6-2.8-1.1-2.8-2.7c0-1.2,1-2.1,2.3-2.1c1.1,0,1.9,0.6,2.3,1.6l0,0.1h0.4l0.6-1.7l-0.1-0.1c-0.8-0.7-2-0.9-2.8-0.9
			c-2.6,0-4.4,1.5-4.4,3.8c0,2.3,1.7,3,3.3,3.6c1.4,0.5,2.7,1.1,2.7,2.7c0,1.5-1.1,2.7-2.5,2.7c-1.3,0-2.2-0.6-3-1.9l0-0.1h-0.4
			L210.4,82.2z"/>
		<path class="st0" d="M229.2,69.9h-10v1.4l0.1,0c1.1-0.1,2.2-0.2,4.1-0.2c0,0.2,0,12.2,0,12.2h1.9c0,0,0-11.9,0-12.2
			c1.3,0,2.6,0.1,3.9,0.2l0.1,0v-1.4H229.2z"/>
		<path class="st0" d="M236,69.6c-4.2,0-7.2,2.8-7.2,6.9c0,4.1,2.9,6.9,7.1,6.9c4.4,0,7.4-2.9,7.4-7.1
			C243.4,71.7,239.7,69.6,236,69.6z M239.6,81c-0.9,1-2.1,1.5-3.5,1.5c-3.1,0-5.1-2.3-5.1-5.8c0-3.9,2-6.3,5.3-6.3
			c1.5,0,3,0.7,3.9,1.8c1,1.3,1.2,2.6,1.2,4.1c0,0.1,0,0.2,0,0.3C241.3,77.9,240.8,79.8,239.6,81z"/>
		<path class="st0" d="M256.6,69.9h-1.2c0,0,0,9.6,0,9.8c0,0,0,0,0,0c-0.1-0.1-9.1-9.8-9.1-9.8h-0.9v13.3h1.3c0,0,0-10,0-10.3
			c0,0,0,0,0,0C246.8,73,255,82,255,82l1,1.2l0.1,0h0.7V69.9H256.6z"/>
		<path class="st0" d="M278.1,69.9h-0.5l-3.2,5.8c0,0-2,3.7-2.2,4c-2-3.3-3.8-6.8-5.3-9.8l0-0.1h-0.7l0,0.1c-0.2,2-1.3,9.9-1.8,13
			l0,0.1h1.6V83c0-1.9,0.3-4.7,0.7-7.6c0,0,0.2-1.3,0.2-1.8c0.2,0.4,2.7,5.2,3.7,7.1l1.1,2.2h0.4l0-0.1c1.1-2.6,2.7-5.5,4.8-9.3
			c0.3,2.3,0.7,6.9,0.9,9.5l0,0.1h2l0-0.1c-0.5-3.2-1-7.5-1.5-13l0-0.1H278.1z"/>
		<path class="st0" d="M287.2,69.6L287.2,69.6h-0.6l-6.1,13.6h1.6l0-0.1c0.5-1.7,1.1-3.2,1.7-4.8c0,0,0.1-0.2,0.1-0.3
			c0.2,0,4.5,0,4.7,0c0.6,1.5,1.3,3.2,2,5.1l0,0.1h2.3L287.2,69.6z M284.5,77c0.1-0.3,1.7-4,1.9-4.5c0.2,0.4,1.8,4.2,1.9,4.5
			C288,77,284.8,77,284.5,77z"/>
		<path class="st0" d="M298.8,76.6c2.4-0.5,3.8-1.8,3.8-3.7c0-2-1.4-3-4.4-3h-4h-0.1v13.3h1.9c0,0,0-6.1,0-6.4c0.2,0,0.5,0,0.6,0
			c0.1,0.1,1.5,1.7,1.5,1.7c0,0,2.2,2.9,2.2,2.9l1.2,1.7l0.1,0h2.4C304.1,83.2,299.1,76.9,298.8,76.6z M296.1,75.9c0-0.2,0-4.8,0-5
			c0.8,0,2-0.1,2.7,0c1.3,0.2,2,1,2,2.3c0,1.3-0.9,2.3-2.3,2.6C297.5,75.9,296.5,75.9,296.1,75.9z"/>
		<path class="st0" d="M313.7,69.9h-10v1.4l0.1,0c1.1-0.1,2.2-0.2,4-0.2c0,0.2,0,12.2,0,12.2h1.9c0,0,0-11.9,0-12.2
			c1.3,0,2.6,0.1,3.9,0.2l0.1,0v-1.4H313.7z"/>
		<path class="st0" d="M315.4,69.9v13.3h1.8V69.9H315.4z"/>
		<path class="st0" d="M330,69.9c0,0,0,9.6,0,9.8c0,0,0,0,0,0c-0.1-0.1-9.1-9.8-9.1-9.8H320v13.3h1.3c0,0,0-10,0-10.3c0,0,0,0,0,0
			c0.1,0.1,8.2,9.1,8.2,9.1l1,1.2l0.7,0V69.9H330z"/>
	</g>
	<g>
		<path class="st0" d="M87.8,215c-0.5-0.1-1-0.1-1.4-0.1s-0.9,0-1.4,0c-0.5,0-1,0-1.4,0c-0.5,0-0.9,0-1.4,0.1c-0.3-0.8-0.6-1.8-1-3
			c-0.4-1.2-0.9-2.4-1.4-3.7c-0.5-1.3-1.1-2.6-1.6-3.9s-1.1-2.6-1.5-3.8c-1.2,0-2.4-0.1-3.6-0.1c-1.2,0-2.4,0-3.6,0
			c-1.1,0-2.2,0-3.3,0c-1.1,0-2.2,0-3.3,0.1c-1.2,2.8-2.2,5.5-3.2,8.1c-0.9,2.6-1.7,4.7-2.1,6.4c-0.6-0.1-1.3-0.1-2-0.1
			c-0.7,0-1.4,0-2,0.1c3-6.4,5.8-12.7,8.6-19c2.8-6.3,5.6-12.7,8.5-19.2h1c0.9,2.1,1.8,4.4,2.8,6.9c1,2.5,2.1,4.9,3.1,7.5
			c1.1,2.5,2.1,5,3.2,7.5c1.1,2.5,2,4.8,3,6.9s1.8,4,2.5,5.7C86.7,212.9,87.3,214.1,87.8,215z M63.6,198c0.9,0,1.9,0,3,0.1
			c1,0,2,0.1,3,0.1c1,0,2,0,3.1,0c1,0,2,0,3.1-0.1l-6.1-13.9L63.6,198z"/>
		<path class="st0" d="M94.6,209.9c0.5,0.7,1.1,1.3,1.8,1.8s1.5,1,2.5,1.3c0.9,0.3,2,0.5,3.2,0.5c1.2,0,2.3-0.2,3.3-0.6
			c1-0.4,1.8-1,2.5-1.7c0.7-0.7,1.2-1.5,1.6-2.5c0.4-1,0.5-2,0.5-3.1c0-1.7-0.4-3-1.3-4c-0.9-1-1.9-1.8-3.2-2.5
			c-1.3-0.7-2.7-1.3-4.1-1.8s-2.9-1.2-4.1-2c-1.3-0.8-2.3-1.9-3.2-3.1c-0.9-1.3-1.3-3-1.3-5.1c0-1.5,0.3-2.9,0.8-4.2
			c0.5-1.3,1.3-2.3,2.4-3.3c1-0.9,2.3-1.6,3.7-2.1c1.5-0.5,3.1-0.8,4.9-0.8c1.7,0,3.3,0.2,4.5,0.6c1.3,0.4,2.5,1.1,3.6,1.9
			c-0.3,0.6-0.6,1.3-0.8,2c-0.2,0.7-0.4,1.6-0.7,2.6h-0.7c-0.2-0.5-0.4-1.1-0.7-1.7s-0.7-1.2-1.3-1.7c-0.5-0.5-1.2-0.9-1.9-1.3
			c-0.7-0.3-1.6-0.5-2.6-0.5c-1,0-2,0.2-2.8,0.5c-0.9,0.3-1.6,0.8-2.2,1.4c-0.6,0.6-1.1,1.3-1.5,2.2c-0.3,0.8-0.5,1.7-0.5,2.7
			c0,1.7,0.4,3.1,1.3,4c0.9,1,1.9,1.8,3.2,2.5c1.3,0.7,2.7,1.3,4.1,1.8c1.5,0.5,2.9,1.2,4.1,1.9c1.3,0.8,2.3,1.7,3.2,3
			c0.9,1.2,1.3,2.8,1.3,4.8c0,1.7-0.3,3.3-0.9,4.8c-0.6,1.5-1.5,2.8-2.6,3.9c-1.1,1.1-2.6,2-4.2,2.6c-1.7,0.6-3.5,0.9-5.7,0.9
			c-2.3,0-4.1-0.3-5.5-0.9c-1.4-0.6-2.6-1.3-3.5-2c0.3-0.8,0.6-1.6,0.7-2.3c0.1-0.7,0.2-1.5,0.4-2.6h0.7
			C93.7,208.6,94.1,209.2,94.6,209.9z"/>
		<path class="st0" d="M129.9,180.3c-0.9,0-1.9,0-3,0c-1,0-2.1,0.1-3.1,0.1c-1,0.1-2,0.1-3,0.2c-1,0.1-1.8,0.2-2.6,0.3
			c0.2-0.7,0.3-1.2,0.3-1.7c0-0.4-0.1-1-0.3-1.7c2.4,0.1,4.8,0.1,7.1,0.2c2.3,0.1,4.6,0.1,7.1,0.1s4.8,0,7.1-0.1
			c2.3-0.1,4.6-0.1,7.1-0.2c-0.2,0.7-0.3,1.3-0.3,1.7c0,0.5,0.1,1,0.3,1.7c-0.8-0.1-1.6-0.2-2.6-0.3c-1-0.1-2-0.1-3-0.2
			c-1-0.1-2.1-0.1-3.1-0.1c-1,0-2,0-3,0c-0.1,3.8-0.2,7.5-0.2,11.3v9.4c0,2.4,0,4.8,0.1,7.1c0.1,2.3,0.2,4.6,0.3,6.9
			c-0.8-0.1-1.7-0.1-2.7-0.1c-0.9,0-1.8,0-2.7,0.1c0.1-2.3,0.2-4.6,0.3-6.9c0.1-2.3,0.1-4.7,0.1-7.1v-9.4
			C130.1,187.8,130,184.1,129.9,180.3z"/>
		<path class="st0" d="M149.8,188.1c1-2.4,2.4-4.5,4.2-6.1c1.8-1.7,4-3,6.5-3.8s5.3-1.3,8.3-1.3c3,0,5.8,0.4,8.3,1.3
			s4.7,2.2,6.5,3.8c1.8,1.7,3.2,3.7,4.2,6.1c1,2.4,1.5,5.2,1.5,8.3s-0.5,5.9-1.5,8.3c-1,2.4-2.4,4.5-4.2,6.1s-4,2.9-6.5,3.7
			c-2.5,0.8-5.3,1.2-8.3,1.2c-3,0-5.7-0.4-8.3-1.2c-2.5-0.8-4.7-2.1-6.5-3.7s-3.2-3.7-4.2-6.1c-1-2.4-1.5-5.2-1.5-8.3
			S148.8,190.5,149.8,188.1z M182.8,188.5c-0.8-2.2-1.8-4-3.2-5.5c-1.4-1.4-3-2.5-4.8-3.2c-1.8-0.7-3.8-1-6-1c-2.1,0-4.1,0.3-5.9,1
			c-1.8,0.7-3.4,1.8-4.8,3.2c-1.4,1.4-2.4,3.3-3.2,5.5c-0.8,2.2-1.1,4.8-1.1,7.8s0.4,5.6,1.1,7.8c0.8,2.2,1.8,4,3.2,5.5
			c1.4,1.4,3,2.5,4.8,3.2c1.8,0.7,3.8,1,5.9,1c2.1,0,4.1-0.3,6-1c1.8-0.7,3.4-1.8,4.8-3.2c1.4-1.4,2.4-3.3,3.2-5.5
			c0.8-2.2,1.1-4.8,1.1-7.8S183.5,190.7,182.8,188.5z"/>
		<path class="st0" d="M214.8,200.8c-4.7-5.1-9.5-10.1-14.2-15.2c0,1-0.1,2.4-0.1,4.1c0,1.7-0.1,4-0.1,7c0,0.8,0,1.7,0,2.8
			c0,1.1,0,2.3,0.1,3.6c0,1.2,0,2.5,0.1,3.8c0,1.3,0.1,2.5,0.1,3.6c0,1.1,0.1,2,0.1,2.9c0,0.8,0.1,1.4,0.1,1.7
			c-0.6-0.1-1.2-0.1-1.9-0.1c-0.7,0-1.4,0-2,0.1c0.1-0.4,0.2-1,0.2-2c0.1-1,0.2-2.2,0.2-3.5c0.1-1.4,0.2-2.9,0.2-4.5
			c0.1-1.6,0.2-3.2,0.2-4.8c0.1-1.6,0.1-3.2,0.1-4.7c0-1.5,0.1-2.9,0.1-4.1c0-3.5,0-6.5,0-9c0-2.5-0.1-4.4-0.1-5.6h0.9
			c2.2,2.4,4.6,5,7.1,7.7c2.5,2.8,5,5.5,7.5,8.1c2.5,2.7,4.9,5.2,7.1,7.6c2.2,2.4,4.2,4.4,5.9,6.1v-7.4c0-3.8,0-7.6-0.1-11.2
			c-0.1-3.6-0.2-7-0.4-10.2c0.7,0.2,1.3,0.3,1.9,0.3c0.4,0,1-0.1,1.7-0.3c-0.1,0.8-0.2,2-0.2,3.6c-0.1,1.6-0.2,3.3-0.3,5.1
			c-0.1,1.8-0.2,3.6-0.2,5.4c-0.1,1.7-0.1,3.2-0.1,4.2c0,0.9,0,2,0,3.3c0,1.2,0,2.5,0,3.9c0,1.3,0,2.7,0.1,4.1c0,1.4,0,2.6,0.1,3.8
			c0,1.2,0,2.2,0,3.1c0,0.8,0,1.4,0,1.8h-0.8C224,210.9,219.6,205.9,214.8,200.8z"/>
		<path class="st0" d="M275.6,191.8c2.6,4.9,5.3,9.9,8.1,15c0.4-0.7,0.9-1.7,1.6-3c0.7-1.3,1.5-2.8,2.4-4.5c0.9-1.7,1.9-3.5,2.9-5.4
			c1-1.9,2.1-3.9,3.2-5.9c1.1-2,2.1-4,3.2-5.9c1.1-1.9,2-3.7,3-5.4h0.7c0.4,3.5,0.8,6.9,1.1,10.1c0.3,3.3,0.7,6.5,1.1,9.6
			c0.4,3.2,0.7,6.3,1.1,9.3c0.4,3.1,0.8,6.1,1.2,9.2c-0.4-0.1-0.9-0.1-1.3-0.1c-0.4,0-0.8,0-1.3,0s-0.9,0-1.3,0
			c-0.4,0-0.8,0-1.3,0.1c-0.4-4.8-0.8-9.5-1.2-14.1s-0.9-9.2-1.5-13.9h-0.1c-2.5,4.6-5,9.2-7.4,13.7s-4.7,9.3-6.9,14.2h-0.5
			c-2.2-4.6-4.5-9.2-6.9-13.8c-2.4-4.6-4.8-9.3-7.2-14.1h-0.1c-0.3,2.3-0.5,4.7-0.8,7.4c-0.3,2.6-0.6,5.2-0.8,7.8
			c-0.3,2.6-0.5,5-0.7,7.3c-0.2,2.3-0.3,4.1-0.3,5.6c-0.6-0.1-1.2-0.1-1.9-0.1c-0.7,0-1.3,0-1.9,0.1c0.5-3,1-6.1,1.5-9.3
			c0.5-3.3,1-6.6,1.5-9.9c0.5-3.3,0.9-6.6,1.3-9.8c0.4-3.2,0.7-6.3,1-9.2h0.9C270.5,181.9,273,187,275.6,191.8z"/>
		<path class="st0" d="M346.8,215c-0.5-0.1-1-0.1-1.4-0.1c-0.5,0-0.9,0-1.4,0c-0.5,0-1,0-1.4,0c-0.5,0-0.9,0-1.4,0.1
			c-0.3-0.8-0.6-1.8-1-3c-0.4-1.2-0.9-2.4-1.4-3.7c-0.5-1.3-1.1-2.6-1.6-3.9s-1.1-2.6-1.5-3.8c-1.2,0-2.4-0.1-3.6-0.1
			c-1.2,0-2.4,0-3.6,0c-1.1,0-2.2,0-3.3,0c-1.1,0-2.2,0-3.3,0.1c-1.2,2.8-2.2,5.5-3.2,8.1c-0.9,2.6-1.7,4.7-2.1,6.4
			c-0.6-0.1-1.3-0.1-2-0.1c-0.7,0-1.4,0-2,0.1c3-6.4,5.8-12.7,8.6-19c2.8-6.3,5.6-12.7,8.5-19.2h1c0.9,2.1,1.8,4.4,2.8,6.9
			c1,2.5,2.1,4.9,3.1,7.5c1.1,2.5,2.1,5,3.2,7.5c1.1,2.5,2,4.8,3,6.9c0.9,2.1,1.8,4,2.5,5.7C345.7,212.9,346.3,214.1,346.8,215z
			 M322.6,198c0.9,0,1.9,0,3,0.1c1,0,2,0.1,3,0.1c1,0,2,0,3.1,0c1,0,2,0,3.1-0.1l-6.1-13.9L322.6,198z"/>
		<path class="st0" d="M356.5,184.6c-0.1-2.3-0.2-4.7-0.3-7.1c1.1,0.1,2.1,0.1,3.1,0.2c1,0.1,2.1,0.1,3.1,0.1c1.1,0,2.1,0,3.1-0.1
			c1-0.1,2.1-0.1,3.1-0.1c1.5,0,3,0.1,4.4,0.4c1.4,0.3,2.6,0.8,3.6,1.4c1,0.7,1.9,1.6,2.5,2.7c0.6,1.1,0.9,2.5,0.9,4.1
			c0,1.7-0.4,3.3-1.2,4.5c-0.8,1.3-1.7,2.3-2.9,3.1c-1.1,0.8-2.3,1.5-3.6,1.9c-1.3,0.5-2.5,0.8-3.5,0.9c0.4,0.5,1,1.3,1.8,2.3
			c0.8,1,1.6,2.1,2.6,3.3c0.9,1.2,1.9,2.4,3,3.7s2,2.5,3,3.7c0.9,1.2,1.8,2.3,2.7,3.3c0.8,1,1.5,1.7,2,2.2c-0.5-0.1-1.1-0.1-1.6-0.1
			c-0.5,0-1.1,0-1.6,0c-0.5,0-1,0-1.6,0c-0.5,0-1.1,0-1.6,0.1c-0.5-0.8-1.4-1.9-2.5-3.4s-2.3-3.2-3.7-4.9c-1.3-1.7-2.7-3.5-4.1-5.2
			c-1.4-1.7-2.7-3.2-3.9-4.4h-2.1v4c0,2.4,0,4.8,0.1,7.1c0.1,2.3,0.2,4.6,0.3,6.9c-0.8-0.1-1.7-0.1-2.7-0.1s-1.8,0-2.7,0.1
			c0.1-2.3,0.2-4.6,0.3-6.9c0.1-2.3,0.1-4.7,0.1-7.1v-9.4C356.6,189.2,356.6,186.9,356.5,184.6z M362.8,195c0.6,0,1.3,0.1,2,0.1
			c1.1,0,2.3-0.1,3.5-0.4s2.3-0.7,3.4-1.3c1-0.6,1.9-1.5,2.5-2.6c0.7-1.1,1-2.4,1-4.1c0-1.4-0.3-2.6-0.8-3.5c-0.5-0.9-1.2-1.7-2-2.2
			c-0.8-0.5-1.7-0.9-2.7-1.1c-1-0.2-2-0.3-2.9-0.3c-1.3,0-2.3,0-3.2,0.1s-1.5,0.1-2.1,0.2c-0.1,2-0.1,4-0.2,6
			c-0.1,2-0.1,3.9-0.1,5.9v3.1C361.6,194.9,362.2,194.9,362.8,195z"/>
		<path class="st0" d="M400,180.3c-0.9,0-1.9,0-3,0c-1,0-2.1,0.1-3.1,0.1c-1,0.1-2,0.1-3,0.2c-1,0.1-1.8,0.2-2.6,0.3
			c0.2-0.7,0.3-1.2,0.3-1.7c0-0.4-0.1-1-0.3-1.7c2.4,0.1,4.8,0.1,7.1,0.2c2.3,0.1,4.6,0.1,7.1,0.1c2.4,0,4.8,0,7-0.1
			c2.3-0.1,4.6-0.1,7.1-0.2c-0.2,0.7-0.3,1.3-0.3,1.7c0,0.5,0.1,1,0.3,1.7c-0.8-0.1-1.6-0.2-2.6-0.3c-1-0.1-2-0.1-3-0.2
			c-1-0.1-2.1-0.1-3.1-0.1c-1,0-2,0-3,0c-0.1,3.8-0.2,7.5-0.2,11.3v9.4c0,2.4,0,4.8,0.1,7.1c0.1,2.3,0.2,4.6,0.3,6.9
			c-0.8-0.1-1.7-0.1-2.7-0.1c-0.9,0-1.8,0-2.7,0.1c0.1-2.3,0.2-4.6,0.3-6.9c0.1-2.3,0.1-4.7,0.1-7.1v-9.4
			C400.2,187.8,400.1,184.1,400,180.3z"/>
		<path class="st0" d="M426.4,184.6c-0.1-2.3-0.2-4.7-0.3-7.1c0.5,0.1,0.9,0.1,1.4,0.2c0.4,0.1,0.9,0.1,1.3,0.1c0.4,0,0.9,0,1.3-0.1
			c0.4-0.1,0.9-0.1,1.4-0.2c-0.1,2.4-0.2,4.8-0.3,7.1c-0.1,2.3-0.1,4.7-0.1,7.1v9.4c0,2.4,0,4.8,0.1,7.1c0.1,2.3,0.2,4.6,0.3,6.9
			c-0.8-0.1-1.7-0.1-2.7-0.1s-1.8,0-2.7,0.1c0.1-2.3,0.2-4.6,0.3-6.9c0.1-2.3,0.1-4.7,0.1-7.1v-9.4
			C426.5,189.2,426.5,186.9,426.4,184.6z"/>
		<path class="st0" d="M462.6,200.8c-4.7-5.1-9.5-10.1-14.2-15.2c0,1-0.1,2.4-0.1,4.1c0,1.7-0.1,4-0.1,7c0,0.8,0,1.7,0,2.8
			c0,1.1,0,2.3,0.1,3.6c0,1.2,0,2.5,0.1,3.8c0,1.3,0.1,2.5,0.1,3.6c0,1.1,0.1,2,0.1,2.9c0,0.8,0.1,1.4,0.1,1.7
			c-0.6-0.1-1.2-0.1-1.9-0.1c-0.7,0-1.4,0-2,0.1c0.1-0.4,0.2-1,0.2-2c0.1-1,0.2-2.2,0.2-3.5c0.1-1.4,0.2-2.9,0.2-4.5
			c0.1-1.6,0.2-3.2,0.2-4.8c0.1-1.6,0.1-3.2,0.1-4.7s0.1-2.9,0.1-4.1c0-3.5,0-6.5,0-9c0-2.5-0.1-4.4-0.1-5.6h0.9
			c2.2,2.4,4.6,5,7.1,7.7c2.5,2.8,5,5.5,7.5,8.1c2.5,2.7,4.9,5.2,7.1,7.6c2.2,2.4,4.2,4.4,5.9,6.1v-7.4c0-3.8,0-7.6-0.1-11.2
			c-0.1-3.6-0.2-7-0.4-10.2c0.7,0.2,1.3,0.3,1.9,0.3c0.4,0,1-0.1,1.7-0.3c-0.1,0.8-0.2,2-0.2,3.6c-0.1,1.6-0.2,3.3-0.3,5.1
			c-0.1,1.8-0.2,3.6-0.2,5.4c-0.1,1.7-0.1,3.2-0.1,4.2c0,0.9,0,2,0,3.3c0,1.2,0,2.5,0,3.9c0,1.3,0,2.7,0.1,4.1c0,1.4,0,2.6,0.1,3.8
			c0,1.2,0,2.2,0,3.1c0,0.8,0,1.4,0,1.8H476C471.8,210.9,467.4,205.9,462.6,200.8z"/>
	</g>
</g>
</svg>
